<svg width="20" height="20" viewBox="0 0 20 20" fill="none" xmlns="http://www.w3.org/2000/svg">
<rect x="1.25" y="1.24999" width="17.5" height="17.5" rx="8.75" fill="url(#paint0_radial_301_7807)"/>
<rect x="1.25" y="1.24999" width="17.5" height="17.5" rx="8.75" fill="url(#paint1_radial_301_7807)"/>
<rect x="1.25" y="1.24999" width="17.5" height="17.5" rx="8.75" fill="url(#paint2_radial_301_7807)"/>
<path d="M13.5 7.24999C13.5 7.66421 13.1642 7.99999 12.75 7.99999C12.3358 7.99999 12 7.66421 12 7.24999C12 6.83578 12.3358 6.49999 12.75 6.49999C13.1642 6.49999 13.5 6.83578 13.5 7.24999Z" fill="white"/>
<path fill-rule="evenodd" clip-rule="evenodd" d="M10 12.5C11.3807 12.5 12.5 11.3807 12.5 9.99999C12.5 8.61928 11.3807 7.49999 10 7.49999C8.61929 7.49999 7.5 8.61928 7.5 9.99999C7.5 11.3807 8.61929 12.5 10 12.5ZM10 11.5C10.8284 11.5 11.5 10.8284 11.5 9.99999C11.5 9.17157 10.8284 8.49999 10 8.49999C9.17157 8.49999 8.5 9.17157 8.5 9.99999C8.5 10.8284 9.17157 11.5 10 11.5Z" fill="white"/>
<path fill-rule="evenodd" clip-rule="evenodd" d="M5 9.79999C5 8.11983 5 7.27976 5.32698 6.63802C5.6146 6.07353 6.07354 5.61459 6.63803 5.32697C7.27976 4.99999 8.11984 4.99999 9.8 4.99999H10.2C11.8802 4.99999 12.7202 4.99999 13.362 5.32697C13.9265 5.61459 14.3854 6.07353 14.673 6.63802C15 7.27976 15 8.11983 15 9.79999V10.2C15 11.8801 15 12.7202 14.673 13.362C14.3854 13.9264 13.9265 14.3854 13.362 14.673C12.7202 15 11.8802 15 10.2 15H9.8C8.11984 15 7.27976 15 6.63803 14.673C6.07354 14.3854 5.6146 13.9264 5.32698 13.362C5 12.7202 5 11.8801 5 10.2V9.79999ZM9.8 5.99999H10.2C11.0566 5.99999 11.6389 6.00077 12.089 6.03754C12.5274 6.07336 12.7516 6.13829 12.908 6.21798C13.2843 6.40973 13.5903 6.71569 13.782 7.09201C13.8617 7.24841 13.9266 7.47261 13.9624 7.91103C13.9992 8.36112 14 8.94341 14 9.79999V10.2C14 11.0566 13.9992 11.6389 13.9624 12.089C13.9266 12.5274 13.8617 12.7516 13.782 12.908C13.5903 13.2843 13.2843 13.5903 12.908 13.782C12.7516 13.8617 12.5274 13.9266 12.089 13.9624C11.6389 13.9992 11.0566 14 10.2 14H9.8C8.94342 14 8.36113 13.9992 7.91104 13.9624C7.47262 13.9266 7.24842 13.8617 7.09202 13.782C6.71569 13.5903 6.40973 13.2843 6.21799 12.908C6.1383 12.7516 6.07337 12.5274 6.03755 12.089C6.00078 11.6389 6 11.0566 6 10.2V9.79999C6 8.94341 6.00078 8.36112 6.03755 7.91103C6.07337 7.47261 6.1383 7.24841 6.21799 7.09201C6.40973 6.71569 6.71569 6.40973 7.09202 6.21798C7.24842 6.13829 7.47262 6.07336 7.91104 6.03754C8.36113 6.00077 8.94342 5.99999 9.8 5.99999Z" fill="white"/>
<defs>
<radialGradient id="paint0_radial_301_7807" cx="0" cy="0" r="1" gradientUnits="userSpaceOnUse" gradientTransform="translate(7.5 14.375) rotate(-55.3758) scale(15.9498)">
<stop stop-color="#B13589"/>
<stop offset="0.79309" stop-color="#C62F94"/>
<stop offset="1" stop-color="#8A3AC8"/>
</radialGradient>
<radialGradient id="paint1_radial_301_7807" cx="0" cy="0" r="1" gradientUnits="userSpaceOnUse" gradientTransform="translate(6.875 19.375) rotate(-65.1363) scale(14.1214)">
<stop stop-color="#E0E8B7"/>
<stop offset="0.444662" stop-color="#FB8A2E"/>
<stop offset="0.71474" stop-color="#E2425C"/>
<stop offset="1" stop-color="#E2425C" stop-opacity="0"/>
</radialGradient>
<radialGradient id="paint2_radial_301_7807" cx="0" cy="0" r="1" gradientUnits="userSpaceOnUse" gradientTransform="translate(0.312501 1.87499) rotate(-8.1301) scale(24.3068 5.19897)">
<stop offset="0.156701" stop-color="#406ADC"/>
<stop offset="0.467799" stop-color="#6A45BE"/>
<stop offset="1" stop-color="#6A45BE" stop-opacity="0"/>
</radialGradient>
</defs>
</svg>
