<svg width="20" height="20" viewBox="0 0 20 20" fill="none" xmlns="http://www.w3.org/2000/svg">
<path d="M7.36796 17.5C5.34609 17.5 3.46136 16.9119 1.875 15.8973C3.22187 15.9844 5.59879 15.7757 7.07724 14.3655C4.85317 14.2634 3.85016 12.5577 3.71934 11.8287C3.90831 11.9016 4.80956 11.9891 5.31834 11.785C2.75994 11.1435 2.36745 8.89832 2.45467 8.2131C2.93437 8.54842 3.74841 8.66505 4.06821 8.63589C1.68425 6.93014 2.54189 4.36422 2.96345 3.81021C4.67427 6.18041 7.23825 7.5116 10.4102 7.58564C10.3504 7.32334 10.3188 7.05026 10.3188 6.76977C10.3188 4.75681 11.9459 3.12499 13.9529 3.12499C15.0016 3.12499 15.9465 3.57046 16.6098 4.28302C17.3106 4.11881 18.3652 3.73441 18.8808 3.402C18.6209 4.33506 17.8118 5.11342 17.3224 5.40192C17.3265 5.41173 17.3185 5.39206 17.3224 5.40192C17.7523 5.33689 18.9155 5.11335 19.375 4.80159C19.1478 5.32577 18.29 6.19732 17.5861 6.68526C17.717 12.4613 13.2978 17.5 7.36796 17.5Z" fill="#47ACDF"/>
</svg>
