<svg width="326" height="349" viewBox="0 0 326 349" fill="none" xmlns="http://www.w3.org/2000/svg">
<g clip-path="url(#clip0_708_2)">
<path d="M-104.953 -63.0492C-104.953 -16.543 -86.9684 61.876 -154.883 146.648C-221.219 229.45 -129.959 -32.746 -38.3047 -48.9744C68.8327 -67.9446 -115.807 371.301 -125.328 281.909C-130.654 231.898 24.3181 -30.601 67.9096 12.991C123.364 68.445 -22.0467 385.191 -56.0005 379.981C-115.9 370.791 98.3315 6.44601 159.118 37.826C231.603 75.244 112.128 324.949 56.6898 338.343C12.339 349.057 177.755 107.065 288.446 162.449" stroke="black" stroke-width="8" stroke-linecap="round"/>
<path d="M295.941 142.989C297.022 141.054 299.98 142.052 299.667 144.246L299.091 148.288C298.904 149.605 300.029 150.734 301.346 150.552L317.061 148.372C319.181 148.078 320.219 150.871 318.421 152.033L306.744 159.583C305.389 160.459 305.576 162.496 307.067 163.111L315.016 166.393C316.844 167.148 316.585 169.813 314.647 170.203L309.444 171.248C308.269 171.484 307.564 172.694 307.938 173.833L309.414 178.327C309.978 180.044 308.156 181.569 306.565 180.711L300.221 177.291C298.593 176.413 296.749 178.026 297.4 179.756L300.89 189.022C301.647 191.032 299.135 192.66 297.61 191.147L287.746 181.364C287.11 180.733 286.132 180.602 285.353 181.043L274.234 187.334C272.381 188.382 270.391 186.195 271.609 184.449L278.157 175.062C278.756 174.204 278.592 173.028 277.78 172.367L266.362 163.073C264.903 161.885 265.743 159.522 267.625 159.522H276.421C277.415 159.522 278.258 158.791 278.4 157.807L279.779 148.245C280.078 146.176 282.949 145.894 283.645 147.864L285.879 154.188C286.452 155.811 288.671 156 289.511 154.497L295.941 142.989Z" fill="#CD4631"/>
</g>
<defs>
<clipPath id="clip0_708_2">
<rect width="326" height="349" fill="white"/>
</clipPath>
</defs>
</svg>
