<svg width="146" height="146" viewBox="0 0 146 146" fill="none" xmlns="http://www.w3.org/2000/svg">
<path d="M89.2095 47.5385C88.5505 49.9465 88.0435 51.9996 87.4225 54.0147C86.3833 57.4366 85.2046 60.7698 82.784 63.5453C80.3253 66.3588 77.2583 67.4234 73.7477 66.3968C71.5932 65.7632 69.6161 64.5465 67.601 63.5199C66.8152 63.1144 66.1308 62.4807 65.0536 61.7076C65.4591 63.634 65.8013 65.1422 66.0801 66.663C66.7772 70.3764 67.6263 74.0644 68.0699 77.8031C68.7036 82.9232 66.1182 85.9903 60.9473 86.4465C58.9195 86.6239 56.8284 86.3071 54.7626 86.193C54.1416 86.155 53.5332 86.0283 52.7982 85.9269C54.6992 88.9686 56.5496 91.8328 58.2732 94.7477C62.2907 101.553 57.7662 105.698 52.3166 106.407C50.8591 106.598 49.3256 106.433 47.8428 106.293C46.8542 106.167 46.0431 105.533 46.1952 104.443C46.322 103.455 47.2091 103.176 48.147 103.15C49.0721 103.112 50.01 103.138 50.9098 102.998C51.9617 102.834 53.0263 102.656 54.0275 102.289C56.8411 101.249 57.6775 99.5003 56.4862 96.7375C55.6497 94.7858 54.5218 92.9481 53.4319 91.1231C52.418 89.4248 51.3154 87.7646 50.2128 86.1043C49.6551 85.2425 49.1228 84.3554 49.6551 83.3415C50.2635 82.1755 51.4168 82.2642 52.4813 82.3403C53.8374 82.429 55.1681 82.7205 56.5242 82.7331C58.2352 82.7712 59.9588 82.7712 61.6317 82.543C63.9003 82.2262 64.7874 81.2377 64.7747 78.9437C64.7621 76.7512 64.6227 74.508 64.2551 72.3408C63.444 67.7022 62.4808 63.1144 61.5049 58.5139C61.2768 57.4239 61.2895 56.4987 62.24 55.8524C63.1398 55.2314 64.0016 55.6116 64.8001 56.2073C66.2195 57.2718 67.6136 58.4125 69.0838 59.401C70.3765 60.2628 71.7199 61.1246 73.1393 61.733C76.9287 63.3679 79.4635 62.5567 81.8334 59.1982C83.6204 56.6762 84.8624 53.888 85.7496 50.9477C86.3959 48.8312 86.9029 46.6767 87.4605 44.5475C87.752 43.4196 88.0562 42.2536 89.463 42.0888C90.7937 41.9494 91.5034 42.9126 92.1498 43.8885C92.4159 44.3067 92.6187 44.763 92.8341 45.2066C93.2524 46.1064 93.734 46.9935 94.0635 47.9314C96.5602 54.8892 102.01 57.2212 108.816 57.3099C110.07 57.3225 111.338 56.9423 112.592 56.7015C113.213 56.5875 113.822 56.2833 114.443 56.2453C114.886 56.2073 115.558 56.3467 115.735 56.6508C115.938 56.9804 115.786 57.6394 115.647 58.0323C115.33 58.8814 114.468 59.5911 113.682 59.9206C112.123 60.567 110.463 61.1373 108.803 61.3021C105.128 61.6823 101.566 60.9345 98.1317 59.5531C95.2041 58.3744 93.227 56.1692 91.8329 53.4317C90.9458 51.6321 90.2107 49.7817 89.2095 47.5385Z" fill="#81ADC8"/>
</svg>
